<svg xmlns="http://www.w3.org/2000/svg" viewBox="0 0 401.8 403.5"><title>Doubloon icon</title><g id="Layer_2" data-name="Layer 2"><g id="Doubloon__B__Warp-2"><path d="M195.8.5a48.3,48.3,0,0,0-16.1.4,77.3,77.3,0,0,0-8,1.9C135.5,10,100.5,21,74.1,48l-3.9,3.3-4.6,4c-1.5,1.8-3.1,3.5-4.7,5.2s-3.3,3.4-5.1,5.1a105.3,105.3,0,0,0-25.6,29c-1.4,2.2-2.7,4.4-3.9,6.7C12.5,125,2.5,150,2.1,177.8l-.9,8.3C-1.5,214-.5,242,11.3,268c1,2.9,2.1,5.7,3.2,8.6s2.3,5.6,3.6,8.4c9.4,26,25.4,49,47.5,65.6,2.3,2.1,4.5,4.1,6.9,6a203.3,203.3,0,0,0,20.5,15l7.3,4.5c21.2,15.9,47.2,23.9,73.3,25.1l8.9,1,9,.6,9.1.2c28.9,2,57.9-1,82-17.6,2.8-1.2,5.5-2.5,8.2-3.9l8.1-4.3C323.5,366,345.5,348,359.8,324l5.3-7.3c1.6-2.3,3.2-4.7,4.7-7.1s2.9-4.7,4.3-7.2a136.5,136.5,0,0,0,24.6-64.2c.3-2.9.6-5.7.8-8.6,3-23,3.8-46.7-1.8-69.4-.7-2.5-1.4-5-2.2-7.5-8.3-25.6-18.7-51.4-36-72.5-1.8-2.2-3.6-4.2-5.4-6.2-15.4-18.8-32.2-35.3-53.2-46.3-2.3-1.2-4.7-2.3-7.2-3.4-16.3-8-32.9-14.8-50.2-18.5l-8.7-1.6C224.5,3,214.5,2,204.3,1.2,201.4.9,198.5.6,195.8.5ZM200.5,303c-10.6-9.4-20.8-19.2-30.7-29.3l-5.8-6.2c-15.5-21.5-35.5-38.5-54.6-55.8-1.9-1.7-3.5-3.3-4.8-4.6l-4.1-4.1,4.4-4.2c21.6-14.8,37.6-34.8,55-55.1l4.5-4.6L200.5,103l9.3,9.2,6.4,6.4a267.8,267.8,0,0,1,28.2,24.5c1.8,1.7,3.5,3.5,5.2,5.3,13.1,15.4,27,29.5,41.2,44.5l6.1,6.4,3.6,3.7c-15.2,12-29.1,25.9-42.2,40.7-1.7,1.8-3.3,3.7-4.9,5.6l-4.2,5.6-4.4,5.4c-11.3,14.7-26.3,26.7-40.6,39.1Z" fill="#efb920"/><path d="M354.9,245.4A160.2,160.2,0,0,1,200.5,363c-88.3,0-160-71.7-160-160a160,160,0,0,1,160-160c4.5,0,8.8.2,13.2.5h-3.2A152.5,152.5,0,1,0,354.9,245.4Z" opacity="0.2"/></g></g></svg>